<?xml version="1.0" encoding="UTF-8"?>
<svg width="752pt" height="752pt" version="1.1" viewBox="0 0 752 752" xmlns="http://www.w3.org/2000/svg">
 <g>
  <path d="m301.6 391.34-43.523 72.031c-21.645 35.801-4.168 76.719 32.488 94.906 17.145 8.5234 38.691 9.5195 56.641 2.3672 19.32-7.6719 38.691-7.6719 58.012 0 17.996 7.1523 39.496 6.1094 56.641-2.3672 36.656-18.184 54.082-59.102 32.488-94.906l-43.523-72.031c-31.207-51.762-117.92-51.762-149.22 0z"/>
  <path d="m353.74 252.68c0 36.516-17.766 66.113-39.684 66.113-21.918 0-39.688-29.598-39.688-66.113 0-36.512 17.77-66.109 39.688-66.109 21.918 0 39.684 29.598 39.684 66.109"/>
  <path d="m261.35 366.15c0 32.195-15.668 58.297-34.996 58.297-19.332 0-35-26.102-35-58.297 0-32.199 15.668-58.301 35-58.301 19.328 0 34.996 26.102 34.996 58.301"/>
  <path d="m525.65 424.45c19.32 0 34.996-26.094 34.996-58.297 0.003906-32.203-15.672-58.348-34.996-58.348-19.32 0-34.996 26.094-34.996 58.297 0 32.207 15.676 58.348 34.996 58.348z"/>
  <path d="m478.11 252.68c0 36.516-17.77 66.113-39.688 66.113s-39.684-29.598-39.684-66.113c0-36.512 17.766-66.109 39.684-66.109s39.688 29.598 39.688 66.109"/>
 </g>
</svg>
